<?xml version="1.0" encoding="UTF-8"?>
<svg version="1.1" xmlns="http://www.w3.org/2000/svg" width="404" height="404">
<path d="M0 0 C1.61201294 0.84280518 1.61201294 0.84280518 3.2565918 1.70263672 C12.14275725 6.40909223 20.76125039 11.50566287 29.34594727 16.73730469 C35.63259209 20.56451645 41.96550906 24.24564098 48.4375 27.75 C56.8065918 32.28269471 65.03066863 37.03484775 73.23803711 41.85351562 C80.12073976 45.88863963 87.04387779 49.84299085 94 53.75 C101.82172674 58.15691967 109.6210167 62.59978211 117.375 67.125 C118.27686035 67.64457275 119.1787207 68.16414551 120.10791016 68.69946289 C127.00451216 72.75087389 133.51327979 76.9295134 137.6875 83.9375 C138.39326172 85.07445313 138.39326172 85.07445313 139.11328125 86.234375 C143.02399691 95.387629 142.66762106 105.19830834 142.6496582 114.97167969 C142.65401312 116.54648071 142.65919885 118.12127962 142.66514587 119.69607544 C142.67846551 123.94837793 142.67912227 128.20059116 142.67658257 132.45291042 C142.67550775 136.01606045 142.68040942 139.57919278 142.685188 143.14233899 C142.69625956 151.55714588 142.6967343 159.97190812 142.69067383 168.38671875 C142.68463996 177.0356473 142.69693554 185.68441293 142.7182439 194.3333137 C142.73592431 201.78676149 142.74185102 209.24015773 142.73860615 216.69362569 C142.73680288 221.13285968 142.73933282 225.57197753 142.75332069 230.01119232 C142.76599924 234.19084404 142.76386139 238.37024408 142.75090981 242.54989243 C142.74856585 244.07272557 142.75119912 245.59557699 142.75953293 247.11838913 C142.8384792 262.68192073 141.1433048 278.15122258 130.375 290.1875 C127.5546875 292.29296875 127.5546875 292.29296875 124.25 294.375 C123.34181519 294.9474646 123.34181519 294.9474646 122.4152832 295.53149414 C116.80359028 299.0203031 111.03621848 302.22026997 105.24365234 305.39648438 C100.23693831 308.14213566 95.28639931 310.96246073 90.375 313.875 C74.05377361 323.54095021 57.59255684 332.9672814 41.06225586 342.27050781 C34.8932407 345.74777231 28.75442134 349.27384285 22.62890625 352.82714844 C13.24949978 358.2653261 3.85346587 363.67349503 -5.625 368.9375 C-6.4900415 369.42677979 -7.35508301 369.91605957 -8.24633789 370.42016602 C-16.47820371 374.94668882 -26.08491704 379.15317643 -35.625 377.1875 C-40.33202399 375.30688995 -44.72215436 372.98349572 -49.15820312 370.54003906 C-51.87792701 369.0488207 -54.61700241 367.597563 -57.359375 366.1484375 C-67.24557116 360.89624681 -76.98307586 355.48809551 -86.48046875 349.56103516 C-93.38284545 345.2746347 -100.43488289 341.25969355 -107.5 337.25 C-116.3592422 332.21830374 -125.16706854 327.1193974 -133.88476562 321.8449707 C-141.38614766 317.31224993 -148.9386802 312.86921266 -156.5 308.4375 C-157.10093475 308.08487091 -157.70186951 307.73224182 -158.3210144 307.368927 C-160.08584833 306.33353881 -161.85138425 305.29935906 -163.6171875 304.265625 C-164.19036713 303.92954224 -164.76354675 303.59345947 -165.35409546 303.24719238 C-168.36842477 301.48517907 -171.39502161 299.74985608 -174.4440918 298.04858398 C-175.07159332 297.6966095 -175.69909485 297.34463501 -176.34561157 296.98199463 C-178.08260818 296.01009444 -179.82352758 295.04521466 -181.56469727 294.08081055 C-189.83414464 288.96477031 -196.85744778 281.26252003 -199.25426006 271.66874695 C-200.73679649 263.1525515 -200.91553882 254.75982693 -200.8996582 246.14453125 C-200.90401539 244.5661902 -200.90920186 242.98785125 -200.91514587 241.40951538 C-200.92843637 237.15746554 -200.92912592 232.90550511 -200.92658257 228.65343857 C-200.92550643 225.08999968 -200.93041237 221.52657842 -200.935188 217.96314335 C-200.94624796 209.55126161 -200.94673991 201.13942454 -200.94067383 192.72753906 C-200.93463152 184.07739305 -200.94695967 175.42740959 -200.9682439 166.7772913 C-200.98590677 159.32213595 -200.99185403 151.86703213 -200.98860615 144.41185665 C-200.9868012 139.97159837 -200.98935055 135.53145618 -201.00332069 131.09121704 C-201.01597169 126.91482793 -201.01388686 122.73869105 -201.00090981 118.56230545 C-200.99856052 117.03863054 -201.00121886 115.51493746 -201.00953293 113.99128342 C-201.07100234 101.84097326 -200.40357841 90.06197315 -192.625 80.1875 C-191.99078125 79.35025391 -191.99078125 79.35025391 -191.34375 78.49609375 C-185.87904963 72.23203561 -178.15291083 68.5617341 -171.01025391 64.53759766 C-167.81168565 62.72714909 -164.63842074 60.87449097 -161.46337891 59.02319336 C-150.35361041 52.55322751 -139.14667764 46.26128748 -127.9140625 40.0078125 C-116.33570858 33.55398946 -104.81948605 27.0109578 -93.3828125 20.30908203 C-84.29623535 14.98510304 -75.16337788 9.74658381 -66.00439453 4.54833984 C-63.72093754 3.24236926 -61.45083351 1.91591125 -59.18359375 0.58203125 C-37.36813546 -12.17138678 -22.28627919 -11.7382876 0 0 Z " fill="#07071C" transform="translate(224.625,21.8125)"/>
<path d="M0 0 C2.35965295 1.48555083 4.73895465 2.93588706 7.12158203 4.38427734 C8.80828557 5.42121576 10.49448997 6.45896655 12.18017578 7.49755859 C12.96900146 7.97572021 13.75782715 8.45388184 14.57055664 8.9465332 C26.91070231 16.64912387 26.91070231 16.64912387 28.88037109 22.42626953 C29.25769133 24.79711884 29.05497961 26.12980173 28.18017578 28.37255859 C23.10296487 34.91624547 15.00409237 39.84905513 7.18017578 42.37255859 C2.83134691 41.96429968 -0.19015704 40.86863203 -3.90185547 38.60693359 C-4.83449219 38.04619141 -5.76712891 37.48544922 -6.72802734 36.90771484 C-7.68644531 36.31861328 -8.64486328 35.72951172 -9.63232422 35.12255859 C-17.67664455 30.23279313 -17.67664455 30.23279313 -25.79638672 25.47021484 C-26.48941895 25.07068604 -27.18245117 24.67115723 -27.89648438 24.25952148 C-30.59228124 23.01633413 -32.9081826 22.99927121 -35.81982422 23.37255859 C-36.14982422 25.02255859 -36.47982422 26.67255859 -36.81982422 28.37255859 C-33.58364384 31.00886164 -30.21009607 32.71400877 -26.44482422 34.49755859 C-18.82981026 38.18306268 -11.83842199 42.66860477 -4.81982422 47.37255859 C-5.81982422 50.37255859 -5.81982422 50.37255859 -8.21826172 51.72412109 C-9.20052734 52.14435547 -10.18279297 52.56458984 -11.19482422 52.99755859 C-12.17193359 53.42294922 -13.14904297 53.84833984 -14.15576172 54.28662109 C-19.6935033 56.54394097 -24.28494145 56.55606543 -30.19482422 56.56005859 C-31.14099609 56.57230469 -32.08716797 56.58455078 -33.06201172 56.59716797 C-37.82914778 56.60721109 -41.45195127 56.46295589 -45.81982422 54.37255859 C-48.59998015 54.03192688 -50.99152813 54.18709655 -53.81982422 54.37255859 C-54.47982422 55.03255859 -55.13982422 55.69255859 -55.81982422 56.37255859 C-55.38669922 56.88044922 -54.95357422 57.38833984 -54.50732422 57.91162109 C-52.00914612 60.9996468 -50.05407934 63.50761659 -49.00732422 67.37255859 C-50.76878575 73.87641657 -56.16524474 78.24328176 -61.79638672 81.57568359 C-63.67064213 82.60701463 -65.55393439 83.62205237 -67.44482422 84.62255859 C-69.49091899 85.73879005 -71.53647969 86.85600095 -73.58154297 87.97412109 C-74.61585449 88.53389648 -75.65016602 89.09367187 -76.71582031 89.67041016 C-79.74112786 91.32940372 -82.7316922 93.03666793 -85.71435547 94.77099609 C-87.11403564 95.58455566 -87.11403564 95.58455566 -88.54199219 96.41455078 C-90.30201384 97.44062346 -92.06026889 98.4697348 -93.81640625 99.50244141 C-101.45380328 103.91869623 -107.70922768 106.80116196 -116.69482422 106.81005859 C-117.99162109 106.82939453 -119.28841797 106.84873047 -120.62451172 106.86865234 C-129.48131176 106.25937583 -137.22090177 101.19919397 -144.56982422 96.62255859 C-146.31497215 95.55070462 -148.06107169 94.48039852 -149.80810547 93.41162109 C-150.6558252 92.89245117 -151.50354492 92.37328125 -152.37695312 91.83837891 C-154.57872871 90.51722554 -156.79775378 89.25299712 -159.05029297 88.02099609 C-159.9992041 87.50037598 -159.9992041 87.50037598 -160.96728516 86.96923828 C-162.63082803 86.06622401 -164.30123669 85.1758895 -165.97216797 84.28662109 C-169.44021964 81.95555755 -171.37592239 79.76220181 -173.81982422 76.37255859 C-174.44482422 72.81005859 -174.44482422 72.81005859 -173.81982422 69.37255859 C-167.73316922 61.2570186 -157.0506747 56.20121264 -148.25732422 51.56005859 C-140.4168996 47.36378439 -132.69122176 43.03795713 -125.09887695 38.40649414 C-119.20803433 34.85748166 -114.99345059 34.20848603 -108.19482422 34.24755859 C-107.51419922 34.24369141 -106.83357422 34.23982422 -106.13232422 34.23583984 C-101.07326544 34.24583798 -101.07326544 34.24583798 -98.81982422 35.37255859 C-98.81982422 36.03255859 -98.81982422 36.69255859 -98.81982422 37.37255859 C-100.63989258 38.62182617 -100.63989258 38.62182617 -103.15966797 40.01708984 C-104.0575 40.52949219 -104.95533203 41.04189453 -105.88037109 41.56982422 C-107.79038102 42.64217874 -109.70443753 43.70735898 -111.62255859 44.76513672 C-112.52167969 45.28140625 -113.42080078 45.79767578 -114.34716797 46.32958984 C-115.17982178 46.79341064 -116.01247559 47.25723145 -116.87036133 47.73510742 C-119.32684134 49.79842758 -119.52106532 51.24237265 -119.81982422 54.37255859 C-112.82474948 54.95944695 -108.88184876 53.32657982 -102.94482422 49.74755859 C-101.76944092 49.0662085 -101.76944092 49.0662085 -100.5703125 48.37109375 C-98.30956537 47.05524817 -96.06338117 45.7174475 -93.81982422 44.37255859 C-92.70091797 43.71255859 -91.58201172 43.05255859 -90.42919922 42.37255859 C-88.21469909 41.0565128 -86.01102195 39.72691699 -83.81982422 38.37255859 C-84.40834941 35.42993264 -84.80675266 34.38721459 -86.88232422 32.06005859 C-89.43053894 28.52543817 -89.42051203 26.65245925 -88.81982422 22.37255859 C-82.39768381 8.36061589 -58.93658276 0.37034094 -45.81982422 -6.25244141 C-45.16804199 -6.58300537 -44.51625977 -6.91356934 -43.84472656 -7.25415039 C-27.91775806 -15.1626119 -13.85535592 -8.78753509 0 0 Z " fill="#F4F4F5" transform="translate(224.81982421875,37.62744140625)"/>
<path d="M0 0 C6.03702918 1.14160172 10.97453966 4.32932395 16.140625 7.515625 C17.17751465 8.14025635 18.2144043 8.7648877 19.28271484 9.40844727 C21.43017445 10.70597287 23.57323313 12.01080905 25.71191406 13.32275391 C28.76425533 15.18838615 31.83528521 17.01825923 34.9140625 18.83984375 C36.78204448 19.95961323 38.64926795 21.0806493 40.515625 22.203125 C41.37317383 22.7094043 42.23072266 23.21568359 43.11425781 23.73730469 C50.70167522 28.3796261 56.10120553 33.79851625 59.19921875 42.25 C61.21322518 51.03425404 61.14348149 60.23022792 56.890625 68.265625 C53.15949533 70.75304478 50.21314062 70.93605599 45.890625 70.265625 C43.1315468 69.15648932 40.74013865 67.6533218 38.265625 66.015625 C37.6365625 65.61988281 37.0075 65.22414063 36.359375 64.81640625 C33.93165551 63.28019371 31.53223958 61.71459055 29.17822266 60.06738281 C26.15527911 57.78194582 26.15527911 57.78194582 22.515625 57.515625 C21.979375 57.763125 21.443125 58.010625 20.890625 58.265625 C20.890625 60.905625 20.890625 63.545625 20.890625 66.265625 C21.64738525 66.65886963 21.64738525 66.65886963 22.41943359 67.06005859 C24.70352989 68.24972497 26.98459067 69.44509897 29.265625 70.640625 C30.0596875 71.053125 30.85375 71.465625 31.671875 71.890625 C32.43242188 72.29023438 33.19296875 72.68984375 33.9765625 73.1015625 C34.6782959 73.46813965 35.3800293 73.8347168 36.10302734 74.21240234 C37.890625 75.265625 37.890625 75.265625 39.890625 77.265625 C40.20947266 80.06298828 40.20947266 80.06298828 40.3046875 83.5859375 C40.36269531 85.47119141 40.36269531 85.47119141 40.421875 87.39453125 C40.4528125 88.71324219 40.48375 90.03195312 40.515625 91.390625 C40.55380529 92.73049418 40.59285706 94.07033883 40.6328125 95.41015625 C40.7273453 98.69517119 40.81289656 101.98017638 40.890625 105.265625 C42.96616148 105.8191014 44.73428464 106.265625 46.890625 106.265625 C46.87902344 105.52699219 46.86742187 104.78835938 46.85546875 104.02734375 C46.79332923 97.04108652 47.12517514 90.2093487 47.890625 83.265625 C53.60113411 85.21555494 55.7150693 88.51374442 58.7890625 93.59765625 C60.75799144 96.09724448 62.48095336 97.5714284 65.02197266 99.43237305 C65.74550934 99.9651738 66.46904602 100.49797455 67.21450806 101.04692078 C67.76762665 101.44909317 68.32074524 101.85126556 68.890625 102.265625 C68.89205002 101.63779617 68.89347504 101.00996735 68.89494324 100.3631134 C68.91463828 93.82520934 68.96890805 87.28823917 69.04321289 80.75073242 C69.06640189 78.31134747 69.08079068 75.87186226 69.08618164 73.43237305 C69.09546406 69.92433125 69.13644282 66.41786828 69.18359375 62.91015625 C69.1796611 61.82039993 69.17572845 60.73064362 69.17167664 59.60786438 C69.31710818 52.05105325 69.31710818 52.05105325 72.22436523 48.06958008 C75.77549964 45.66693086 77.66671616 45.67518613 81.890625 46.265625 C85.4609375 47.5859375 85.4609375 47.5859375 89.015625 49.390625 C90.19382812 49.97070312 91.37203125 50.55078125 92.5859375 51.1484375 C96.10096437 53.40038143 98.7470458 55.68996814 100.890625 59.265625 C101.35569984 62.00968137 101.53663774 64.11861626 101.47070312 66.84399414 C101.47438148 67.94516823 101.47438148 67.94516823 101.47813416 69.06858826 C101.48029735 70.65310502 101.4710956 72.23767032 101.4516449 73.82206917 C101.42149754 76.3322096 101.42262662 78.84065096 101.4317627 81.35093689 C101.44565778 86.67688303 101.42095842 92.00227099 101.390625 97.328125 C101.35546795 103.5053435 101.33625061 109.68173651 101.35874939 115.8590374 C101.3593663 118.32847552 101.33020672 120.79641604 101.29992676 123.26564026 C101.30200156 124.78264635 101.30546737 126.29965139 101.31054688 127.81665039 C101.28582558 128.84153061 101.28582558 128.84153061 101.26060486 129.88711548 C101.30896516 133.71241255 101.80782842 135.16705886 104.30456543 138.139328 C107.68325668 140.91733867 111.17218951 143.22419058 114.890625 145.515625 C115.58929688 145.96164062 116.28796875 146.40765625 117.0078125 146.8671875 C120.60153243 149.1047867 123.58743694 150.82858246 127.890625 151.265625 C127.88593448 147.93529222 127.88593448 147.93529222 126.890625 144.265625 C124.74700112 142.28942502 123.01429773 140.9370478 120.578125 139.453125 C119.99611328 139.07220703 119.41410156 138.69128906 118.81445312 138.29882812 C115.9093179 136.42019595 112.98911214 134.81486857 109.890625 133.265625 C109.890625 128.645625 109.890625 124.025625 109.890625 119.265625 C134.18157757 130.32614559 134.18157757 130.32614559 138.890625 141.265625 C139.37490639 145.1046074 139.40027677 148.90009152 139.390625 152.765625 C139.41898438 153.79816406 139.44734375 154.83070313 139.4765625 155.89453125 C139.48883464 160.64998384 139.43219593 163.43306073 136.796875 167.484375 C132.99366714 169.81537337 131.30273835 170.01701294 126.890625 169.265625 C123.63919102 167.80048658 120.69881986 165.94244176 117.703125 164.015625 C115.93397016 162.91345807 114.16442714 161.81191403 112.39453125 160.7109375 C111.48977051 160.14149414 110.58500977 159.57205078 109.65283203 158.98535156 C106.92833833 157.289105 104.1810269 155.64037098 101.41796875 154.0078125 C100.09091919 153.22325684 100.09091919 153.22325684 98.73706055 152.42285156 C97.05599656 151.43081042 95.37393067 150.44046426 93.69067383 149.45214844 C81.1019767 141.95628842 73.9362754 135.31737573 69.84765625 120.8671875 C68.55713926 117.35908825 67.21995191 115.88326637 63.84765625 114.31640625 C63.13996094 114.07277344 62.43226562 113.82914062 61.703125 113.578125 C60.98769531 113.32675781 60.27226563 113.07539063 59.53515625 112.81640625 C58.99246094 112.63464844 58.44976562 112.45289063 57.890625 112.265625 C57.7875 113.173125 57.684375 114.080625 57.578125 115.015625 C56.50902621 120.06954657 56.50902621 120.06954657 53.890625 122.265625 C47.90211582 122.78526283 44.15623027 121.93812476 39.015625 118.765625 C38.36142578 118.37979248 37.70722656 117.99395996 37.03320312 117.59643555 C34.63952799 116.17323488 32.26572389 114.71961464 29.890625 113.265625 C27.71099761 111.94911923 25.53130571 110.63272025 23.3515625 109.31640625 C21.0293497 107.90675278 18.7095602 106.49316255 16.390625 105.078125 C15.28090332 104.40136719 14.17118164 103.72460938 13.02783203 103.02734375 C-4.31734945 92.33241547 -4.31734945 92.33241547 -7.046875 86.203125 C-7.42714844 85.38714844 -7.80742188 84.57117188 -8.19921875 83.73046875 C-10.84636643 76.56158383 -11.75477393 67.12384079 -9.28515625 59.83203125 C-7.88470013 57.32786993 -6.71021997 55.56604748 -4.109375 54.265625 C0.05797687 54.10836644 3.83504428 54.28245392 7.890625 55.265625 C8.509806 50.73808177 8.509806 50.73808177 6.73632812 46.69189453 C5.09439741 45.15090218 3.4046959 43.72767161 1.640625 42.328125 C-4.14827054 37.6524786 -8.36753241 33.2893227 -9.49365234 25.66333008 C-9.68055564 22.80992312 -9.70467035 19.9996077 -9.671875 17.140625 C-9.69572266 16.17769531 -9.71957031 15.21476563 -9.74414062 14.22265625 C-9.73516441 9.87218632 -9.61322898 6.21212871 -7.13671875 2.5234375 C-3.56100463 -0.14335316 -3.56100463 -0.14335316 0 0 Z " fill="#F3F4F5" transform="translate(48.109375,206.734375)"/>
<path d="M0 0 C5.05215536 3.05163746 8.15336978 6.38016228 10 12 C10.36850052 16.28148472 10.32930639 20.55650724 10.31567383 24.8527832 C10.31255638 26.90046631 10.33584262 28.94664039 10.36132812 30.99414062 C10.43491489 45.86023996 8.27845585 59.73878983 -1.94140625 71.171875 C-10.15438188 78.51800705 -21.04528369 82.56728427 -31 87 C-32.0214209 87.45793945 -33.0428418 87.91587891 -34.09521484 88.38769531 C-37.18420237 89.76838278 -40.27789624 91.13762303 -43.375 92.5 C-44.33108154 92.9213623 -45.28716309 93.34272461 -46.2722168 93.77685547 C-51.13032288 95.88150308 -55.86583533 97.6987792 -61 99 C-61 102.3 -61 105.6 -61 109 C-58.9890625 107.948125 -58.9890625 107.948125 -56.9375 106.875 C-52.38978699 104.6011435 -47.77334746 102.59192156 -43.0625 100.6875 C-42.4120874 100.42114746 -41.7616748 100.15479492 -41.09155273 99.88037109 C-38.23128383 98.74224188 -36.10872799 98 -33 98 C-31.80973263 109.37366595 -34.66048284 117.932992 -41.4609375 126.93359375 C-46.71094391 132.05860001 -54.31431441 134.87826202 -60.88476562 137.97998047 C-62.93207488 138.96724479 -64.94276208 140.00627756 -66.953125 141.06640625 C-74.42575518 144.92850395 -81.42328769 147.91650782 -90 146 C-95.0451578 142.60224066 -97.05232671 137.62579146 -98.56542969 131.83666992 C-99.16505949 127.92256955 -99.18257254 124.06804637 -99.203125 120.11328125 C-99.21167511 118.82770576 -99.21167511 118.82770576 -99.22039795 117.51615906 C-99.22982297 115.70487695 -99.23637198 113.8935779 -99.24023438 112.08227539 C-99.24990641 109.33904307 -99.28093945 106.59657132 -99.3125 103.85351562 C-99.43912038 83.22074752 -99.43912038 83.22074752 -93.25 74.25 C-92.80140625 73.57453125 -92.3528125 72.8990625 -91.890625 72.203125 C-86.45994275 65.87480932 -80.40356349 62.41490791 -72.8125 59.125 C-71.85794922 58.70009277 -70.90339844 58.27518555 -69.91992188 57.83740234 C-62.53697187 54.58272349 -55.06942936 51.54246032 -47.52270508 48.68798828 C-38.506841 45.21737547 -30.76980756 40.17030744 -26.125 31.5 C-24.46361775 26.3648185 -24.49070454 20.93889112 -24.30859375 15.5859375 C-23.996397 11.95813228 -23.57269279 9.28538791 -22 6 C-15.90181541 1.31057324 -7.68185599 -2.16535538 0 0 Z " fill="#FDE15D" transform="translate(340,203)"/>
<path d="M0 0 C4.2696612 1.90181197 8.38492635 4.03597084 12.5 6.25 C13.58716309 6.8270166 14.67432617 7.4040332 15.79443359 7.99853516 C41.389059 21.68707901 41.389059 21.68707901 45 28 C46.03930736 31.94119364 46.39229669 35.14603807 45 39 C39.53799974 45.44337942 31.87359082 49.06561476 24.5 52.875 C22.17892574 54.09490588 19.85861134 55.31625863 17.5390625 56.5390625 C15.85925293 57.42126465 15.85925293 57.42126465 14.14550781 58.32128906 C9.38126519 60.8638948 4.69865362 63.54984236 0.07226562 66.33544922 C-5.79400919 69.75072319 -11.75438017 71.29058492 -18.5625 71.25 C-19.86380859 71.25773437 -19.86380859 71.25773437 -21.19140625 71.265625 C-28.81109743 70.54498661 -34.72267761 67.23409618 -41.3125 63.5625 C-42.27148193 63.03333984 -43.23046387 62.50417969 -44.21850586 61.95898438 C-50.57224081 58.42522156 -56.85112204 54.77821518 -63.0625 51 C-63.79315674 50.55599854 -64.52381348 50.11199707 -65.27661133 49.65454102 C-76.58264991 42.66940036 -76.58264991 42.66940036 -78 37 C-78.52857887 32.99906458 -78.55830131 30.04047063 -76.625 26.4375 C-69.19774014 19.5407587 -60.25572488 14.72247398 -51.40478516 9.91064453 C-49.4995983 8.87478159 -47.59908376 7.83074253 -45.69921875 6.78515625 C-42.14483527 4.83388128 -38.57528418 2.91272378 -35 1 C-34.03360596 0.47704346 -33.06721191 -0.04591309 -32.0715332 -0.5847168 C-20.88046283 -6.4587486 -11.54919778 -4.20630507 0 0 Z " fill="#F3F3F5" transform="translate(212,122)"/>
<path d="M0 0 C0 0.66 0 1.32 0 2 C-1.98 2.33 -3.96 2.66 -6 3 C-6 3.66 -6 4.32 -6 5 C-5.21625 5.268125 -4.4325 5.53625 -3.625 5.8125 C-1 7 -1 7 1 10 C1.26069641 12.14265442 1.26069641 12.14265442 1.2746582 14.65161133 C1.28419022 15.59301468 1.29372223 16.53441803 1.30354309 17.50434875 C1.30263168 18.51998398 1.30172028 19.5356192 1.30078125 20.58203125 C1.30506638 21.62896652 1.3093515 22.67590179 1.31376648 23.75456238 C1.31951266 25.97121457 1.32000794 28.18788562 1.31567383 30.40454102 C1.31252197 33.78890404 1.3359419 37.17238623 1.36132812 40.55664062 C1.36360195 42.7109364 1.36430423 44.86523452 1.36328125 47.01953125 C1.372491 48.02909378 1.38170074 49.03865631 1.39118958 50.07881165 C1.33944961 57.97720774 -0.43145155 62.84969404 -6.0625 68.5625 C-6.75472656 69.28566406 -7.44695312 70.00882812 -8.16015625 70.75390625 C-16.5422908 77.38351749 -27.26390259 80.48441472 -37.19140625 84.07421875 C-50.92175251 89.19263185 -61.49060808 94.73078926 -68.1171875 108.28515625 C-70.40836386 114.29676661 -70.68719569 120.6252639 -71 127 C-76.93891422 129.5915262 -81.54107286 130.40368295 -88 130 C-88 129.01 -88 128.02 -88 127 C-88.66 127 -89.32 127 -90 127 C-89.01 129.64 -88.02 132.28 -87 135 C-89.75 134.875 -89.75 134.875 -93 134 C-99.32375483 126.79794589 -99.36471463 117.84578942 -99.3125 108.75 C-99.30686035 107.73019043 -99.3012207 106.71038086 -99.29541016 105.65966797 C-99.08495076 92.60910169 -96.66202196 82.82064153 -87.375 73.3125 C-76.92283537 65.44511845 -63.28475026 61.50678895 -51.17431641 56.95361328 C-48.79350534 56.05597736 -46.41622922 55.14942175 -44.0390625 54.2421875 C-43.32021881 53.97542206 -42.60137512 53.70865662 -41.86074829 53.43380737 C-34.24731697 50.6335097 -34.24731697 50.6335097 -28.93359375 44.9296875 C-28.76988281 44.25164062 -28.60617187 43.57359375 -28.4375 42.875 C-27.29218668 39.16308094 -27.29218668 39.16308094 -24.3125 37.5 C-23.1678125 37.2525 -23.1678125 37.2525 -22 37 C-23.03568595 35.29264699 -23.03568595 35.29264699 -25 34 C-30.98863815 34 -36.01775185 36.546131 -41.42578125 38.94140625 C-44 40 -44 40 -46 40 C-45.91621094 39.21753906 -45.83242187 38.43507812 -45.74609375 37.62890625 C-45.64425781 36.61699219 -45.54242188 35.60507813 -45.4375 34.5625 C-45.33308594 33.55316406 -45.22867188 32.54382813 -45.12109375 31.50390625 C-45.08113281 30.67761719 -45.04117188 29.85132813 -45 29 C-46.10528442 27.68031822 -46.10528442 27.68031822 -48.875 27.75 C-51.96169576 27.71444686 -51.96169576 27.71444686 -53.8125 29.375 C-56.20263961 32.64571736 -56.08688392 35.00333956 -56 39 C-53.69 39.66 -51.38 40.32 -49 41 C-51.25635574 43.25635574 -52.47410548 43.51181687 -55.5 44.3125 C-59.30925375 45.434435 -59.30925375 45.434435 -61.5625 48.6875 C-61.706875 49.450625 -61.85125 50.21375 -62 51 C-66.61410512 49.54291417 -66.61410512 49.54291417 -68.1328125 47.40625 C-70.32134786 41.3335573 -70.35953638 32.348858 -67.9375 26.3828125 C-62.37016139 18.60669281 -53.89717472 14.13219449 -45.25 10.625 C-44.34403076 10.24996338 -43.43806152 9.87492676 -42.50463867 9.48852539 C-40.61687762 8.70940532 -38.7271211 7.93510344 -36.83544922 7.16552734 C-34.05458122 6.02243592 -31.29429579 4.83897905 -28.53515625 3.64453125 C-26.79468207 2.90788179 -25.05381164 2.17216767 -23.3125 1.4375 C-22.52456055 1.09090332 -21.73662109 0.74430664 -20.92480469 0.38720703 C-14.02930616 -2.45751385 -6.7494688 -3.86717456 0 0 Z " fill="#4278A9" transform="translate(301,165)"/>
<path d="M0 0 C12.48481881 -0.55583097 23.70055132 6.54785709 34.21875 12.5234375 C35.40837558 13.1934053 36.5980735 13.86324467 37.7878418 14.53295898 C45.97092403 19.1589489 54.13087667 23.79725841 61.78125 29.2734375 C62.86792969 30.04494141 62.86792969 30.04494141 63.9765625 30.83203125 C66.26081258 32.72191529 67.61399132 34.46253159 68.21875 37.39453125 C68.21875 40.93608676 67.61432041 43.40178304 65.13134766 45.99975586 C58.69873522 50.88744677 51.87786331 54.67782464 44.71875 58.3984375 C35.85993321 62.98923001 35.85993321 62.98923001 27.28515625 68.078125 C19.35787092 73.12088537 10.95945546 73.70859695 1.78125 72.2734375 C-3.10718701 70.84912194 -7.42795097 68.25641211 -11.79101562 65.68652344 C-14.61954655 64.04015004 -17.48592091 62.47287051 -20.359375 60.90625 C-49.61774895 44.88090752 -49.61774895 44.88090752 -54.21875 39.2734375 C-54.90159504 35.24465179 -55.18239933 32.8129424 -52.98901367 29.30883789 C-48.28036482 23.82818883 -43.31400226 20.64357248 -36.90625 17.3984375 C-34.95257782 16.37474151 -32.99946135 15.34998433 -31.046875 14.32421875 C-30.07298828 13.81842285 -29.09910156 13.31262695 -28.09570312 12.79150391 C-22.97492436 10.08945007 -17.955555 7.20273754 -12.94213867 4.30712891 C-8.5695245 1.83603232 -4.99925998 0.61610598 0 0 Z " fill="#F2F2F4" transform="translate(272.21875,71.7265625)"/>
<path d="M0 0 C7.46648143 0.15663947 13.08307412 4.15664423 19.23291016 7.96289062 C21.83860105 9.56422152 24.46179938 11.13360962 27.09197998 12.69432068 C29.60215765 14.18449377 32.10763801 15.68243998 34.61212158 17.18215942 C35.85924942 17.92885963 37.10708076 18.67438626 38.35565186 19.41867065 C57.62567924 30.93775001 57.62567924 30.93775001 60.9375 40.625 C61.47008243 44.51772662 61.45234101 48.34958681 61.3984375 52.2734375 C61.39752106 53.36717682 61.39660461 54.46091614 61.3956604 55.58779907 C61.38964601 57.88556289 61.37396565 60.18331966 61.34912109 62.48095703 C61.31239873 66.00973106 61.30810355 69.53746026 61.30859375 73.06640625 C61.29876994 75.30209246 61.28711617 77.53777155 61.2734375 79.7734375 C61.27121185 80.83170746 61.26898621 81.88997742 61.26669312 82.98031616 C61.25393341 83.95538116 61.24117371 84.93044617 61.22802734 85.93505859 C61.21659195 87.22456924 61.21659195 87.22456924 61.20492554 88.54013062 C60.9375 90.625 60.9375 90.625 58.9375 92.625 C52.82185021 93.21578995 49.04588954 92.18454895 43.8125 88.9375 C43.14508789 88.54248291 42.47767578 88.14746582 41.79003906 87.74047852 C40.31184954 86.86370268 38.83808306 85.97943907 37.36816406 85.08886719 C34.73685391 83.50416091 32.08574385 81.956912 29.4296875 80.4140625 C-4.22342778 60.82086635 -4.22342778 60.82086635 -8.0625 48.625 C-8.47561483 45.47211811 -8.48385133 42.36019961 -8.4609375 39.18359375 C-8.46380768 38.29769058 -8.46667786 37.41178741 -8.46963501 36.4990387 C-8.47166683 34.63582719 -8.466199 32.77259393 -8.45361328 30.90942383 C-8.43752764 28.06738403 -8.45350169 25.22676203 -8.47265625 22.38476562 C-8.47067404 20.56770522 -8.46683081 18.75064568 -8.4609375 16.93359375 C-8.46701019 16.08969589 -8.47308289 15.24579803 -8.4793396 14.37632751 C-8.40157409 7.8155768 -7.56975475 0.68241529 0 0 Z " fill="#F6F6F7" transform="translate(126.0625,175.375)"/>
<path d="M0 0 C5.47052223 0.89009394 9.84761198 2.42214344 14.66308594 5.15136719 C15.37263428 5.54042236 16.08218262 5.92947754 16.81323242 6.33032227 C57.11373843 28.76480569 57.11373843 28.76480569 61.37011719 43.28808594 C61.54929687 43.98546875 61.72847656 44.68285156 61.91308594 45.40136719 C62.17109985 46.22894531 62.17109985 46.22894531 62.43432617 47.07324219 C63.52869224 52.39495296 63.1393645 57.99647379 63.15332031 63.41772461 C63.16300931 65.69584907 63.19404751 67.97306419 63.22558594 70.25097656 C63.23211869 71.71386187 63.23736809 73.17675359 63.24121094 74.63964844 C63.25355774 75.31280594 63.26590454 75.98596344 63.27862549 76.67951965 C63.25543731 81.6805023 62.18759346 85.03889497 59.91308594 89.40136719 C56.42425945 91.14578043 52.72854627 90.83302927 48.91308594 90.40136719 C46.07936019 89.44181725 43.64878522 88.01807074 41.10058594 86.46386719 C39.99396606 85.81635498 39.99396606 85.81635498 38.86499023 85.15576172 C37.18115614 84.16411598 35.50321635 83.16241956 33.83007812 82.15283203 C31.11126583 80.52036137 28.37627002 78.91819535 25.63487244 77.32402039 C23.11752626 75.85602885 20.60917263 74.37314099 18.10269165 72.88668823 C16.86447028 72.1542717 15.62392742 71.42576386 14.38095093 70.70144653 C5.92515808 65.75750031 -2.05913695 60.71285833 -6.08691406 51.40136719 C-6.3543396 49.20765686 -6.3543396 49.20765686 -6.37744141 46.80395508 C-6.39020111 45.89944107 -6.40296082 44.99492706 -6.41610718 44.06300354 C-6.41833282 43.09314011 -6.42055847 42.12327667 -6.42285156 41.12402344 C-6.42950836 40.12052353 -6.43616516 39.11702362 -6.44302368 38.08311462 C-6.45314136 35.9624108 -6.45784098 33.8416752 -6.45751953 31.72094727 C-6.46189348 28.47912113 -6.49822529 25.23865571 -6.53613281 21.99707031 C-6.54200099 19.935226 -6.54597038 17.87337524 -6.54785156 15.81152344 C-6.5622226 14.84368423 -6.57659363 13.87584503 -6.59140015 12.87867737 C-6.5624328 8.60570887 -6.44334754 6.03803895 -4.32470703 2.25366211 C-2.08691406 0.40136719 -2.08691406 0.40136719 0 0 Z " fill="#F4F4F5" transform="translate(45.0869140625,129.5986328125)"/>
<path d="M0 0 C3.10159028 1.0801258 4.20165555 3.01282316 6.0078125 5.69921875 C6.48883057 8.5403595 6.48883057 8.5403595 6.46191406 11.68286133 C6.46161194 12.86370804 6.46130981 14.04455475 6.46099854 15.26118469 C6.44035339 16.52593124 6.41970825 17.7906778 6.3984375 19.09375 C6.39277771 20.39624191 6.38711792 21.69873383 6.38128662 23.04069519 C6.36606539 26.49167976 6.32681566 29.94198337 6.2824707 33.3927002 C6.24144108 36.91860748 6.22325932 40.44462556 6.203125 43.97070312 C6.16031665 50.88048682 6.09210901 57.78982003 6.0078125 64.69921875 C5.47816895 64.41844482 4.94852539 64.1376709 4.40283203 63.84838867 C3.69755371 63.48334229 2.99227539 63.1182959 2.265625 62.7421875 C1.57098145 62.37891357 0.87633789 62.01563965 0.16064453 61.64135742 C-3.69455179 59.95421718 -6.90518838 59.76211096 -10.9921875 60.69921875 C-14.75967113 62.35674703 -18.34980434 64.18689833 -21.953125 66.16796875 C-24.9921875 67.69921875 -24.9921875 67.69921875 -27.9921875 67.69921875 C-27.98582275 66.89403809 -27.97945801 66.08885742 -27.97290039 65.25927734 C-27.39385456 43.78353499 -27.39385456 43.78353499 -35.9921875 24.69921875 C-36.56195313 24.13460937 -37.13171875 23.57 -37.71875 22.98828125 C-38.9921875 21.69921875 -38.9921875 21.69921875 -38.9921875 19.69921875 C-37.13134766 18.37402344 -37.13134766 18.37402344 -34.53125 16.87109375 C-33.58378906 16.31808594 -32.63632812 15.76507813 -31.66015625 15.1953125 C-30.65597656 14.61910156 -29.65179688 14.04289063 -28.6171875 13.44921875 C-26.67169227 12.31932499 -24.72637877 11.18911826 -22.78125 10.05859375 C-21.81751465 9.50405518 -20.8537793 8.9495166 -19.86083984 8.37817383 C-16.27296956 6.27827732 -12.7539926 4.07373309 -9.24707031 1.84155273 C-6.17205015 0.2837334 -3.4095196 0.01887188 0 0 Z " fill="#CADBE3" transform="translate(344.9921875,130.30078125)"/>
<path d="M0 0 C0.476082 0.3536412 0.952164 0.70728241 1.44267273 1.07164001 C2.0696254 1.53002762 2.69657806 1.98841522 3.3425293 2.46069336 C3.9629863 2.91745956 4.5834433 3.37422577 5.22270203 3.84483337 C8.93498886 6.25765887 12.79409963 5.70514353 17 5 C19.7157709 4.10371867 22.2759722 3.07467096 24.87109375 1.875 C27 1 27 1 30 1 C30.00410889 1.95140869 30.00821777 2.90281738 30.01245117 3.88305664 C30.03459809 7.49001711 30.08923789 11.0959405 30.15258789 14.70239258 C30.17546385 16.24883919 30.19009043 17.79543487 30.19555664 19.34204102 C30.24179564 30.28645757 31.38091285 39.9289049 36 50 C36.99 50.495 36.99 50.495 38 51 C34.43236337 59.75692628 21.22737852 65.51800085 13 69 C9.55417132 69.68718822 7.54012624 69.5709881 4 69 C1.57617031 67.04966262 1.01123625 66.03370876 0 63 C-0.08911173 60.96033519 -0.11760045 58.91782714 -0.11352539 56.8762207 C-0.11344986 55.61513992 -0.11337433 54.35405914 -0.11329651 53.05476379 C-0.10818989 51.67843588 -0.10297389 50.30210837 -0.09765625 48.92578125 C-0.09579086 47.51759389 -0.09436753 46.10940589 -0.09336853 44.70121765 C-0.08955288 40.9973267 -0.07973072 37.29347505 -0.06866455 33.58959961 C-0.05842997 29.80908744 -0.05386652 26.02856891 -0.04882812 22.24804688 C-0.0381076 14.83201335 -0.0210426 7.41601218 0 0 Z " fill="#C9D9E3" transform="translate(202,307)"/>
<path d="M0 0 C0.495 1.485 0.495 1.485 1 3 C0.01 3.33 -0.98 3.66 -2 4 C-2.46277344 4.49242187 -2.92554688 4.98484375 -3.40234375 5.4921875 C-5.38772584 7.36592219 -6.93007386 7.50917708 -9.5625 8.125 C-12.08757086 9.00715111 -12.08757086 9.00715111 -14 11 C-15.03337675 15.23775115 -15.33803144 19.32581178 -15.640625 23.6640625 C-16.3902391 34.34837708 -20.97674099 41.9988122 -29 49 C-32.16691768 51.14980543 -35.4617114 52.55715961 -39 54 C-40.44489078 54.61904293 -41.8888185 55.24033623 -43.33203125 55.86328125 C-49.58493005 58.54309502 -55.84234482 61.20687428 -62.2109375 63.6015625 C-73.08741755 67.70239731 -82.85435037 71.99070311 -88 83 C-93.09761347 98.29284041 -90.54031866 118.84907404 -91 135 C-95.875 131.25 -95.875 131.25 -97 129 C-97.11980639 127.51165568 -97.17976883 126.01826807 -97.20874023 124.52539062 C-97.22803085 123.59682251 -97.24732147 122.66825439 -97.26719666 121.71154785 C-97.32510089 117.43794665 -97.37427965 113.16451484 -97.4050293 108.890625 C-97.42654077 106.6443742 -97.46056119 104.39820566 -97.50756836 102.15234375 C-97.57493779 98.90326725 -97.60209591 95.65592877 -97.62109375 92.40625 C-97.66283974 90.91816833 -97.66283974 90.91816833 -97.70542908 89.40002441 C-97.68096133 80.98880269 -94.7684097 75.05756845 -89.06193542 68.91322327 C-84.27435685 64.30336458 -78.80431398 61.65458414 -72.75 59.0625 C-71.79996094 58.64210449 -70.84992188 58.22170898 -69.87109375 57.78857422 C-62.50204066 54.5591233 -55.0476512 51.53453222 -47.52246094 48.68774414 C-38.50660834 45.21771555 -30.76964101 40.16999655 -26.125 31.5 C-24.46361775 26.3648185 -24.49070454 20.93889112 -24.30859375 15.5859375 C-23.996397 11.95813228 -23.57269279 9.28538791 -22 6 C-15.35899932 0.89315454 -8.23877467 -0.98427839 0 0 Z " fill="#F7F5ED" transform="translate(340,203)"/>
<path d="M0 0 C2.54425853 1.2449341 5.08534361 2.49573888 7.625 3.75 C8.33785156 4.09804688 9.05070313 4.44609375 9.78515625 4.8046875 C18.08397559 8.91602919 24.66029797 12.92535971 28.36938477 21.80834961 C29.66733676 26.31927296 29.4281892 30.96799017 29.375 35.625 C29.38660156 36.64851563 29.39820313 37.67203125 29.41015625 38.7265625 C29.38768904 44.47816835 29.27870417 48.72129583 25 53 C15.77939571 54.30392384 9.54799195 50.9372448 2 46.0625 C-2.91069684 40.99834389 -2.28236296 34.25941322 -2.203125 27.65625 C-1.88193654 18.41590519 -0.90149084 9.19832339 0 0 Z " fill="#F4F4F5" transform="translate(158,270)"/>
<path d="M0 0 C3.15894867 2.50537308 4.58701443 5.68639173 5.1010437 9.67831421 C5.22534597 12.35618249 5.25445943 15.01845637 5.24609375 17.69921875 C5.2513356 18.68565872 5.25657745 19.67209869 5.26197815 20.68843079 C5.26838639 22.77201398 5.26707691 24.85563341 5.25854492 26.93920898 C5.25007372 30.09751378 5.27875119 33.25398477 5.31054688 36.41210938 C5.3563784 49.32879135 5.29594748 60.80426431 -4.17822266 70.62060547 C-12.31959593 77.98246451 -21.63287071 82.05405765 -31.6875 86.0625 C-52.90781416 93.55139582 -52.90781416 93.55139582 -67.0625 110 C-69.12881958 116.51890498 -69.48884324 123.66463916 -70.1875 130.4375 C-72.36872506 131.31180519 -74.55499842 132.16158501 -76.75 133 C-77.96816406 133.47566406 -79.18632812 133.95132813 -80.44140625 134.44140625 C-84.48394328 135.51632486 -87.13311266 135.30890629 -91.1875 134.4375 C-90.6925 133.4475 -90.6925 133.4475 -90.1875 132.4375 C-90.79510482 130.0880947 -91.45879528 127.75220912 -92.1875 125.4375 C-91.5275 125.4375 -90.8675 125.4375 -90.1875 125.4375 C-90.1875 126.4275 -90.1875 127.4175 -90.1875 128.4375 C-88.29149631 128.12603528 -86.39570413 127.81328283 -84.5 127.5 C-82.91638672 127.23896484 -82.91638672 127.23896484 -81.30078125 126.97265625 C-78.58500396 126.50582879 -75.88625765 125.99327384 -73.1875 125.4375 C-73.22230469 124.67566406 -73.25710937 123.91382813 -73.29296875 123.12890625 C-73.58595095 111.95372819 -71.19248294 105.39214613 -64.90625 96.2109375 C-57.60256815 88.76034251 -48.17035764 84.87924549 -38.5625 81.25 C-36.42386538 80.42476599 -34.28583314 79.59796899 -32.1484375 78.76953125 C-31.1373291 78.37870361 -30.1262207 77.98787598 -29.08447266 77.58520508 C-19.44235296 73.76524851 -7.78774075 69.13973239 -3.10795593 59.12796021 C-2.17243677 56.39347072 -1.93965952 54.38605429 -1.94458008 51.51123047 C-1.94150345 50.5602951 -1.93842682 49.60935974 -1.93525696 48.62960815 C-1.94244247 47.61488434 -1.94962799 46.60016052 -1.95703125 45.5546875 C-1.95748947 44.5034671 -1.95794769 43.4522467 -1.9584198 42.36917114 C-1.96143555 40.1518643 -1.96930155 37.93455945 -1.98168945 35.71728516 C-1.99997065 32.31795782 -2.00219885 28.91890267 -2.00195312 25.51953125 C-2.00686771 23.36458097 -2.01269577 21.20963254 -2.01953125 19.0546875 C-2.02064407 18.03591522 -2.0217569 17.01714294 -2.02290344 15.96749878 C-2.02928329 15.02286774 -2.03566315 14.07823669 -2.04223633 13.10498047 C-2.04604813 12.27400848 -2.04985992 11.4430365 -2.05378723 10.58688354 C-2.10672274 8.25197498 -2.10672274 8.25197498 -3.1875 5.4375 C-6.19597418 4.21229736 -6.19597418 4.21229736 -9.1875 3.4375 C-8.8575 2.4475 -8.5275 1.4575 -8.1875 0.4375 C-2.93817024 -0.75552949 -2.93817024 -0.75552949 0 0 Z " fill="#1F4573" transform="translate(303.1875,166.5625)"/>
<path d="M0 0 C1.98 0 3.96 0 6 0 C6.47447863 4.74478631 6.5915259 7.99440597 4.125 12.1875 C-4.1884723 20.57687481 -16.18987424 23.88195422 -27.04760742 27.67456055 C-39.87855697 32.18337741 -54.55959302 37.7144393 -60.86962891 50.80395508 C-63.57103203 57.72040973 -63.44506544 64.60009118 -63.375 71.9375 C-63.38660156 73.14857422 -63.39820313 74.35964844 -63.41015625 75.60742188 C-63.38644542 82.90640489 -62.59735873 89.16147198 -60 96 C-62.75 95.875 -62.75 95.875 -66 95 C-72.32375483 87.79794589 -72.36471463 78.84578942 -72.3125 69.75 C-72.30686035 68.73019043 -72.3012207 67.71038086 -72.29541016 66.65966797 C-72.08495076 53.60910169 -69.66202196 43.82064153 -60.375 34.3125 C-49.92283537 26.44511845 -36.28475026 22.50678895 -24.17431641 17.95361328 C-21.79350534 17.05597736 -19.41622922 16.14942175 -17.0390625 15.2421875 C-16.32021881 14.97542206 -15.60137512 14.70865662 -14.86074829 14.43380737 C-7.23188831 11.56426699 -7.23188831 11.56426699 -1.7578125 5.859375 C-1.54898438 5.16328125 -1.34015625 4.4671875 -1.125 3.75 C-0.568125 1.89375 -0.568125 1.89375 0 0 Z " fill="#EBEEF2" transform="translate(274,204)"/>
<path d="M0 0 C1.13500694 0.88312038 2.25761307 1.78218855 3.375 2.6875 C4.00148438 3.18636719 4.62796875 3.68523437 5.2734375 4.19921875 C10.4052366 9.55161555 9.33758441 16.94770368 9.31567383 23.8527832 C9.31255638 25.90046631 9.33584262 27.94664039 9.36132812 29.99414062 C9.43491489 44.86023996 7.27845585 58.73878983 -2.94140625 70.171875 C-11.15438188 77.51800705 -22.04528369 81.56728427 -32 86 C-33.0214209 86.45793945 -34.0428418 86.91587891 -35.09521484 87.38769531 C-38.18420237 88.76838278 -41.27789624 90.13762303 -44.375 91.5 C-45.33108154 91.9213623 -46.28716309 92.34272461 -47.2722168 92.77685547 C-48.18011963 93.17018066 -49.08802246 93.56350586 -50.0234375 93.96875 C-50.81669434 94.31357422 -51.60995117 94.65839844 -52.42724609 95.01367188 C-55.54832745 96.21021474 -58.78602603 97.08172172 -62 98 C-62.33 103.94 -62.66 109.88 -63 116 C-68 114 -68 114 -69 113 C-69.78046487 106.96026617 -70.37283021 100.73024767 -66.5 95.6875 C-62.96769958 92.46051628 -59.09248468 90.33449436 -54.82421875 88.25 C-53.77804634 87.73308846 -53.77804634 87.73308846 -52.71073914 87.20573425 C-43.96012473 82.93250366 -34.99382336 79.1337567 -26.0246582 75.34643555 C-23.79949874 74.40429812 -21.58115402 73.44742219 -19.36328125 72.48828125 C-18.69557205 72.21107742 -18.02786285 71.9338736 -17.33992004 71.64826965 C-11.36348384 69.0424912 -7.63462385 65.09173135 -3.8125 59.9375 C-3.32394531 59.28652344 -2.83539063 58.63554687 -2.33203125 57.96484375 C0.00644449 54.51542059 1.25112281 51.93126313 1.24291992 47.72216797 C1.24599655 46.88805389 1.24907318 46.05393982 1.25224304 45.19454956 C1.24505753 44.30277008 1.23787201 43.4109906 1.23046875 42.4921875 C1.23001053 41.57035675 1.22955231 40.648526 1.2290802 39.69876099 C1.22606329 37.75375071 1.21819379 35.80874273 1.20581055 33.86376953 C1.1875254 30.87914523 1.18530114 27.89483078 1.18554688 24.91015625 C1.18063254 23.02083064 1.17480459 21.13150714 1.16796875 19.2421875 C1.16685593 18.34635956 1.1657431 17.45053162 1.16459656 16.52755737 C1.15821671 15.69974762 1.15183685 14.87193787 1.14526367 14.01904297 C1.14145187 13.28942352 1.13764008 12.55980408 1.13371277 11.80807495 C1.10764833 9.89860488 1.10764833 9.89860488 0 8 C-2.01669827 6.86649466 -2.01669827 6.86649466 -4 6 C-3.67 4.68 -3.34 3.36 -3 2 C-2.01 2 -1.02 2 0 2 C0 1.34 0 0.68 0 0 Z " fill="#F0B910" transform="translate(341,204)"/>
<path d="M0 0 C2.46913349 0.91352102 4.57467709 1.83739106 6.875 3.0625 C7.53556396 3.40321533 8.19612793 3.74393066 8.87670898 4.0949707 C22.3106038 11.1837828 35.79218207 18.94370386 48 28 C46.69684984 32.14139289 45.46163746 33.7925765 41.67578125 35.89453125 C40.81146484 36.37470703 39.94714844 36.85488281 39.05664062 37.34960938 C38.15107422 37.83236328 37.24550781 38.31511719 36.3125 38.8125 C34.9831543 39.56563477 34.9831543 39.56563477 33.62695312 40.33398438 C28.62369517 43.05596409 24.8390761 44.88934742 19 44 C16.6015625 42.94140625 16.6015625 42.94140625 14.625 41.5625 C13.95726562 41.11003906 13.28953125 40.65757813 12.6015625 40.19140625 C11 39 11 39 10 38 C9.875 35 9.875 35 10 32 C10.33 31.67 10.66 31.34 11 31 C14.15658915 31.00753363 17.29976614 31.07851433 20.453125 31.21484375 C24.50242933 31.34287883 24.50242933 31.34287883 27.9765625 29.4921875 C28.31429687 28.99976562 28.65203125 28.50734375 29 28 C28.34902344 27.76410156 27.69804687 27.52820313 27.02734375 27.28515625 C23.05030498 25.59683915 19.33292402 23.54122658 15.5625 21.4375 C14.77496338 20.99929932 13.98742676 20.56109863 13.17602539 20.10961914 C-5.25057837 9.74942163 -5.25057837 9.74942163 -9 6 C-9.04063832 4.33382885 -9.042721 2.66611905 -9 1 C-5.9187437 -0.54062815 -3.41316398 -0.22777788 0 0 Z " fill="#0D0D21" transform="translate(279,81)"/>
<path d="M0 0 C4.93400896 0.1303113 8.3640008 2.05519641 12.5078125 4.57421875 C13.18457031 4.96158203 13.86132812 5.34894531 14.55859375 5.74804688 C18.8695397 8.27040887 22.62908639 11.09489974 26.3828125 14.38671875 C26.18896484 16.20874023 26.18896484 16.20874023 25.3828125 18.38671875 C23.27587891 19.85961914 23.27587891 19.85961914 20.484375 21.234375 C19.45610596 21.75209473 18.42783691 22.26981445 17.3684082 22.80322266 C16.25941162 23.34640137 15.15041504 23.88958008 14.0078125 24.44921875 C11.72080698 25.60050044 9.43566756 26.75549607 7.15234375 27.9140625 C5.44038818 28.78200439 5.44038818 28.78200439 3.69384766 29.66748047 C-1.84956819 32.54587115 -7.22770802 35.68993492 -12.60107422 38.87133789 C-24.33692444 45.81196603 -24.33692444 45.81196603 -29.3671875 45.69921875 C-30.12515625 45.69535156 -30.883125 45.69148438 -31.6640625 45.6875 C-33.6171875 45.38671875 -33.6171875 45.38671875 -35.6171875 43.38671875 C-35.40439432 40.88561429 -34.92437118 39.70286412 -33.16943359 37.89672852 C-27.481306 33.77031946 -21.50315143 30.4997731 -15.2421875 27.32421875 C-14.26507813 26.82083984 -13.28796875 26.31746094 -12.28125 25.79882812 C-9.398625 24.31726621 -6.50850188 22.8512345 -3.6171875 21.38671875 C-2.66553711 20.89703613 -1.71388672 20.40735352 -0.73339844 19.90283203 C0.61189941 19.21616455 0.61189941 19.21616455 1.984375 18.515625 C2.78439941 18.10513916 3.58442383 17.69465332 4.40869141 17.27172852 C6.3828125 16.38671875 6.3828125 16.38671875 8.3828125 16.38671875 C8.3828125 15.72671875 8.3828125 15.06671875 8.3828125 14.38671875 C7.7228125 14.34546875 7.0628125 14.30421875 6.3828125 14.26171875 C1.97759574 12.97686386 -1.33088281 10.56602747 -4.6171875 7.38671875 C-5.7421875 4.63671875 -5.7421875 4.63671875 -5.6171875 2.38671875 C-3.6171875 0.38671875 -3.6171875 0.38671875 0 0 Z " fill="#0E0D22" transform="translate(134.6171875,90.61328125)"/>
<path d="M0 0 C6.45149074 0.64672821 11.30397957 2.82293518 16.92871094 5.95825195 C18.16427734 6.61664063 18.16427734 6.61664063 19.42480469 7.28833008 C30.57322811 13.32930348 30.57322811 13.32930348 31.99121094 17.58325195 C30.91354306 20.98205063 29.02115216 21.98353105 25.99511719 23.6887207 C25.06570312 24.16954102 24.13628906 24.65036133 23.17871094 25.14575195 C22.26968018 25.61682373 22.26968018 25.61682373 21.34228516 26.09741211 C0.70574383 36.73382319 0.70574383 36.73382319 -7.82128906 36.14575195 C-8.82128906 35.14575195 -8.82128906 35.14575195 -9.19628906 32.83325195 C-8.82128906 30.14575195 -8.82128906 30.14575195 -6.80957031 28.2434082 C-3.23610015 25.73497229 0.45078291 23.8091738 4.36621094 21.89575195 C5.09001953 21.53223633 5.81382812 21.1687207 6.55957031 20.79418945 C11.91120624 18.14575195 11.91120624 18.14575195 14.17871094 18.14575195 C14.17871094 17.48575195 14.17871094 16.82575195 14.17871094 16.14575195 C13.62183594 15.99879883 13.06496094 15.8518457 12.49121094 15.70043945 C6.54582416 13.9529778 1.58574444 11.59752691 -2.82128906 7.14575195 C-3.94628906 4.39575195 -3.94628906 4.39575195 -3.82128906 2.14575195 C-1.82128906 0.14575195 -1.82128906 0.14575195 0 0 Z " fill="#0E0D23" transform="translate(194.8212890625,147.854248046875)"/>
<path d="M0 0 C0 0.66 0 1.32 0 2 C-0.96808594 2.25652344 -1.93617188 2.51304687 -2.93359375 2.77734375 C-7.43658474 4.0669751 -11.72827694 5.79704115 -16.0625 7.5625 C-16.917229 7.90748535 -17.77195801 8.2524707 -18.65258789 8.60791016 C-21.43704472 9.7337828 -24.21889007 10.86588627 -27 12 C-27.98838867 12.40299316 -28.97677734 12.80598633 -29.99511719 13.22119141 C-35.57619201 15.49879547 -41.15465285 17.78268798 -46.73022461 20.07373047 C-48.34856912 20.73415847 -49.98009615 21.36266024 -51.61938477 21.96923828 C-55.16809519 23.5057633 -57.2287292 25.6391272 -59 29 C-60.05651972 32.96337668 -60.56211938 36.92669194 -61 41 C-61.11085937 41.99 -61.22171875 42.98 -61.3359375 44 C-61.58106827 46.3320549 -61.80356145 48.66341514 -62 51 C-66.61410512 49.54291417 -66.61410512 49.54291417 -68.1328125 47.40625 C-70.32134786 41.3335573 -70.35953638 32.348858 -67.9375 26.3828125 C-62.37016139 18.60669281 -53.89717472 14.13219449 -45.25 10.625 C-43.89104614 10.06244507 -43.89104614 10.06244507 -42.50463867 9.48852539 C-40.61687762 8.70940532 -38.7271211 7.93510344 -36.83544922 7.16552734 C-34.05458122 6.02243592 -31.29429579 4.83897905 -28.53515625 3.64453125 C-26.79468207 2.90788179 -25.05381164 2.17216767 -23.3125 1.4375 C-22.52456055 1.09090332 -21.73662109 0.74430664 -20.92480469 0.38720703 C-14.02930616 -2.45751385 -6.7494688 -3.86717456 0 0 Z " fill="#EAEFF1" transform="translate(301,165)"/>
<path d="M0 0 C0.66 0.66 1.32 1.32 2 2 C1.82474418 4.88726057 1.54783568 6.45912649 -0.53686523 8.51733398 C-7.85742669 13.0527035 -15.43500639 17.0746625 -23.0625 21.0625 C-25.70121867 22.44544871 -28.33793713 23.83210311 -30.97265625 25.22265625 C-31.91026794 25.71603233 -31.91026794 25.71603233 -32.86682129 26.21937561 C-36.23612058 28.00779809 -39.494706 29.88845743 -42.69140625 31.96875 C-46.49221332 34.30218527 -48.6157841 34.61379023 -53 34 C-55 32 -55 32 -55.3605957 29.55712891 C-55 27 -55 27 -53.44213867 25.42333984 C-52.7122876 24.98199707 -51.98243652 24.5406543 -51.23046875 24.0859375 C-50.40595215 23.5815918 -49.58143555 23.07724609 -48.73193359 22.55761719 C-43.96311711 19.83866731 -39.16203623 17.19736605 -34.3125 14.625 C-25.87113429 10.15811826 -25.87113429 10.15811826 -17.60546875 5.37890625 C-16.9818042 5.00233887 -16.35813965 4.62577148 -15.71557617 4.23779297 C-14.13506049 3.27018539 -12.56689574 2.28247973 -11 1.29296875 C-6.99502075 -0.43313559 -4.34047423 -0.37527017 0 0 Z " fill="#0F0E24" transform="translate(202,126)"/>
<path d="M0 0 C0.33 0 0.66 0 1 0 C1.60743549 10.61324792 0.88489718 19.44217312 -6.01171875 27.88671875 C-10.18152776 32.50226409 -15.00802522 35.71227021 -20.25 39 C-21.59578125 39.87591797 -21.59578125 39.87591797 -22.96875 40.76953125 C-29.5869072 45 -29.5869072 45 -33 45 C-33 38.4 -33 31.8 -33 25 C-22.5 19 -22.5 19 -18 19 C-17.67 20.32 -17.34 21.64 -17 23 C-8.16427186 18.47438315 -4.07438079 8.63768727 0 0 Z " fill="#C3D2DC" transform="translate(350,273)"/>
<path d="M0 0 C10.98700998 0.95539217 19.62693029 6.34463138 28.625 12.375 C29.60984375 13.02210938 30.5946875 13.66921875 31.609375 14.3359375 C34.42502477 16.19802055 37.2184358 18.08743464 40 20 C41.2233606 20.84111328 41.2233606 20.84111328 42.47143555 21.69921875 C43.19886963 22.21871094 43.92630371 22.73820312 44.67578125 23.2734375 C45.30911377 23.72380371 45.94244629 24.17416992 46.5949707 24.63818359 C48 26 48 26 48.5625 29.25 C48 32 48 32 47 34 C41.00455674 33.57451693 37.37581267 31.76134075 32.4375 28.4375 C31.02890064 27.5210401 29.61871315 26.60701701 28.20703125 25.6953125 C27.15249756 25.01130371 27.15249756 25.01130371 26.07666016 24.31347656 C22.99064735 22.36158979 19.81532378 20.58662049 16.625 18.8125 C12.42086203 16.41907896 8.24758657 14.00685754 4.1875 11.375 C3.39730469 10.86710938 2.60710937 10.35921875 1.79296875 9.8359375 C-0.63267409 7.35216379 -0.79437567 5.40879447 -1 2 C-0.67 1.34 -0.34 0.68 0 0 Z " fill="#0F0F24" transform="translate(129,192)"/>
<path d="M0 0 C0.66 0.66 1.32 1.32 2 2 C1.82489028 4.88931044 1.54697353 6.45996776 -0.5390625 8.51953125 C-3.00809882 10.04996388 -5.4830552 11.54881878 -8 13 C-8.87374268 13.51844482 -8.87374268 13.51844482 -9.76513672 14.04736328 C-11.68529387 15.17958531 -13.62039682 16.28090172 -15.5625 17.375 C-16.17496582 17.73311768 -16.78743164 18.09123535 -17.41845703 18.46020508 C-21.91533857 20.91201639 -25.89463192 22.08368954 -31 21 C-33.84904796 19.7060909 -36.29060479 18.02835549 -38.8125 16.1875 C-39.46669922 15.73568359 -40.12089844 15.28386719 -40.79492188 14.81835938 C-43.78433125 12.72668888 -46.46476593 10.63471128 -49 8 C-47.5625 5.4375 -47.5625 5.4375 -45 3 C-38.89826274 2.25899206 -34.86954107 4.53721524 -30 8 C-27.0454257 9.006647 -24.99167413 9.38809461 -22.03491211 8.23095703 C-19.83341108 7.07205608 -17.69551471 5.84306321 -15.5625 4.5625 C-10.24476969 1.38131556 -6.43541936 -0.85425921 0 0 Z " fill="#0D0D23" transform="translate(113,103)"/>
<path d="M0 0 C1.19026737 11.37366595 -1.66048284 19.932992 -8.4609375 28.93359375 C-13.70342735 34.05126241 -21.30150103 36.87906527 -27.86279297 39.97998047 C-29.96512069 40.98335324 -32.04768254 42.02007265 -34.12890625 43.06640625 C-35.43970668 43.7117455 -36.75088958 44.3563086 -38.0625 45 C-39.22910156 45.5775 -40.39570313 46.155 -41.59765625 46.75 C-45.35674052 48.13106425 -48.02771005 48.44778541 -52 48 C-54.5 45.1875 -54.5 45.1875 -56 42 C-55.67 41.01 -55.34 40.02 -55 39 C-54.01 39.66 -53.02 40.32 -52 41 C-44.6842283 40.86728759 -38.68612116 38.04361422 -32.125 35 C-31.05668945 34.5052417 -29.98837891 34.0104834 -28.88769531 33.50073242 C-19.49787877 29.00715821 -10.90166727 24.06679327 -6.60546875 14.0625 C-5.53828585 10.4271931 -5.17472135 6.77398106 -5 3 C-5.99 2.67 -6.98 2.34 -8 2 C-5.09399739 0.74335022 -3.20395416 0 0 0 Z " fill="#EFB90F" transform="translate(307,301)"/>
<path d="M0 0 C2 2 2 2 2.01171875 4.09375 C1.90472656 4.8878125 1.79773438 5.681875 1.6875 6.5 C1.58824219 7.2940625 1.48898437 8.088125 1.38671875 8.90625 C1 11 1 11 0 13 C1.73636719 12.22462891 1.73636719 12.22462891 3.5078125 11.43359375 C5.04653363 10.76744009 6.58561545 10.10211915 8.125 9.4375 C8.88554687 9.09525391 9.64609375 8.75300781 10.4296875 8.40039062 C14.96660061 6.46438029 18.09840654 5.36613551 23 7 C24.375 9.0625 24.375 9.0625 25 11 C23.02 11.33 21.04 11.66 19 12 C18.67 12.99 18.34 13.98 18 15 C18 14.34 18 13.68 18 13 C17.32533691 13.29769287 16.65067383 13.59538574 15.95556641 13.90209961 C12.85155599 15.26186328 9.73854981 16.59973212 6.625 17.9375 C5.03365234 18.64036133 5.03365234 18.64036133 3.41015625 19.35742188 C-3.11868173 22.14119022 -8.88219317 23.8335657 -16 24 C-15.5625 21.1875 -15.5625 21.1875 -14 18 C-11.10596396 16.55562735 -8.14164535 15.73692916 -5 15 C-5.804375 14.690625 -6.60875 14.38125 -7.4375 14.0625 C-10 13 -10 13 -11 12 C-11.42193999 7.35866006 -10.78317667 4.74658398 -8 1 C-5.23749964 -0.38125018 -3.05268901 -0.19079306 0 0 Z " fill="#1F4773" transform="translate(255,192)"/>
<path d="M0 0 C5.30718154 0.18602492 9.5097524 2.81661005 14 5.4375 C15.09183594 6.06527344 16.18367188 6.69304688 17.30859375 7.33984375 C18.95021484 8.34724609 18.95021484 8.34724609 20.625 9.375 C21.64851563 10.00277344 22.67203125 10.63054688 23.7265625 11.27734375 C26 13.4375 26 13.4375 26.3359375 16.69140625 C26.16964844 18.05072266 26.16964844 18.05072266 26 19.4375 C22.74342847 21.06578576 19.52120444 20.95868086 16 20.4375 C12.86916202 19.15587452 10.09626599 17.44246469 7.25 15.625 C6.50878906 15.17318359 5.76757812 14.72136719 5.00390625 14.25585938 C-2.53993933 9.61713925 -2.53993933 9.61713925 -5 7.4375 C-5.375 4.875 -5.375 4.875 -5 2.4375 C-3 0.4375 -3 0.4375 0 0 Z " fill="#0F0F23" transform="translate(214,46.5625)"/>
<path d="M0 0 C0.99 0.66 1.98 1.32 3 2 C3.3828125 4.44921875 3.3828125 4.44921875 3 7 C0.85155847 9.5954775 -2.1661255 11.21387532 -5 13 C-5.54124512 13.34562988 -6.08249023 13.69125977 -6.64013672 14.04736328 C-8.43415457 15.18024405 -10.24403642 16.28184056 -12.0625 17.375 C-12.6395166 17.73311768 -13.2165332 18.09123535 -13.81103516 18.46020508 C-18.00993455 20.89737424 -21.18391395 21.53053579 -26 21 C-26.66 20.34 -27.32 19.68 -28 19 C-27.9375 16.625 -27.9375 16.625 -27 14 C-23.01785239 10.45528527 -18.54483196 7.61336526 -14.0625 4.75 C-13.02706055 4.06164063 -13.02706055 4.06164063 -11.97070312 3.359375 C-7.8747026 0.75035855 -5.01443021 -0.7882947 0 0 Z " fill="#0F0F23" transform="translate(176,47)"/>
<path d="M0 0 C2.5 0.1875 2.5 0.1875 5 1 C7.49095696 4.73643544 7.25791662 6.72544735 7.265625 11.1875 C7.26753845 11.88641357 7.2694519 12.58532715 7.27142334 13.30541992 C7.27278283 14.78141643 7.26910282 16.25742498 7.26074219 17.73339844 C7.25003882 19.99180984 7.2606449 22.24942582 7.2734375 24.5078125 C7.27211586 25.94271009 7.26955338 27.37760718 7.265625 28.8125 C7.26336914 30.11832031 7.26111328 31.42414063 7.25878906 32.76953125 C7 36 7 36 5 39 C0.25 38.25 0.25 38.25 -2 36 C-2.1995697 33.44249547 -2.27986826 30.99561859 -2.265625 28.4375 C-2.26753845 27.69040771 -2.2694519 26.94331543 -2.27142334 26.17358398 C-2.27278498 24.59325829 -2.26909 23.01292142 -2.26074219 21.43261719 C-2.250042 19.00951078 -2.26063779 16.58714577 -2.2734375 14.1640625 C-2.2721159 12.63020669 -2.2695535 11.09635135 -2.265625 9.5625 C-2.26967346 8.83538818 -2.27372192 8.10827637 -2.27789307 7.35913086 C-2.22992361 2.22992361 -2.22992361 2.22992361 0 0 Z " fill="#0A0A1F" transform="translate(89,167)"/>
<path d="M0 0 C2.375 0.75 2.375 0.75 3.375 1.75 C3.61799754 6.25539528 3.60353842 10.76635949 3.61523438 15.27758789 C3.62491605 17.54285734 3.65591409 19.8072103 3.6875 22.07226562 C3.69403233 23.51301544 3.6992819 24.95377175 3.703125 26.39453125 C3.71714355 28.36450073 3.71714355 28.36450073 3.73144531 30.37426758 C3.36118059 33.88087737 2.77991584 35.24626831 0.375 37.75 C-4.5 36.875 -4.5 36.875 -5.625 35.75 C-5.75062812 33.33679801 -5.81361547 30.95372959 -5.828125 28.5390625 C-5.83382507 27.81512299 -5.83952515 27.09118347 -5.84539795 26.3453064 C-5.8548612 24.81029732 -5.86138717 23.2752678 -5.86523438 21.74023438 C-5.8749316 19.39156575 -5.90593729 17.04377519 -5.9375 14.6953125 C-5.94403069 13.20573438 -5.9492809 11.71614998 -5.953125 10.2265625 C-5.9654718 9.52334869 -5.9778186 8.82013489 -5.99053955 8.09561157 C-5.97722202 5.17911704 -5.94176178 3.21305601 -4.26855469 0.76708984 C-2.625 -0.25 -2.625 -0.25 0 0 Z " fill="#06071D" transform="translate(217.625,326.25)"/>
<path d="M0 0 C10.46418877 0.39487505 20.76456355 6.54683051 28 14 C29.125 17.3125 29.125 17.3125 29 20 C28.67 20.66 28.34 21.32 28 22 C17.36256102 21.40903117 9.5737366 16.47444648 1.875 9.29296875 C-0.05001727 6.93883305 -0.625 5.92662726 -0.625 2.9375 C-0.41875 1.968125 -0.2125 0.99875 0 0 Z " fill="#101024" transform="translate(49,278)"/>
<path d="M0 0 C5.93541074 0.46491468 10.0175773 2.26664723 15.125 5.25 C15.81464844 5.63285156 16.50429687 6.01570312 17.21484375 6.41015625 C21.40185169 8.8038759 24.82291641 11.29848418 28 15 C28.4375 17.6875 28.4375 17.6875 28 20 C26 22 26 22 23.37890625 22.41796875 C18.75688102 21.8462269 15.7774731 19.84021338 11.9375 17.3125 C10.89625977 16.65991211 10.89625977 16.65991211 9.83398438 15.99414062 C5.77034871 13.38924597 2.10505223 10.75041603 -1 7 C-0.8125 3.1875 -0.8125 3.1875 0 0 Z " fill="#111125" transform="translate(50,171)"/>
<path d="M0 0 C5.93541074 0.46491468 10.0175773 2.26664723 15.125 5.25 C15.81464844 5.63285156 16.50429687 6.01570312 17.21484375 6.41015625 C21.39307896 8.79886051 24.88773412 11.2520883 28 15 C28.3125 18.8125 28.3125 18.8125 28 22 C24.9429081 22.93866219 23.44749507 23.18353839 20.44458008 21.9519043 C19.12043091 21.14619995 19.12043091 21.14619995 17.76953125 20.32421875 C16.80208984 19.74349609 15.83464844 19.16277344 14.83789062 18.56445312 C13.83951172 17.94505859 12.84113281 17.32566406 11.8125 16.6875 C10.80251953 16.07970703 9.79253906 15.47191406 8.75195312 14.84570312 C1.36276307 10.36276307 1.36276307 10.36276307 -1 8 C-1.33333333 2.66666667 -1.33333333 2.66666667 0 0 Z " fill="#111126" transform="translate(149,229)"/>
<path d="M0 0 C3.29714793 0.32971479 4.6226839 0.6226839 7 3 C7.19948557 5.48566543 7.27989743 7.8575075 7.265625 10.34375 C7.26753845 11.06864624 7.2694519 11.79354248 7.27142334 12.54040527 C7.27278487 14.07365262 7.26909064 15.6069115 7.26074219 17.14013672 C7.25004178 19.49082259 7.26063808 21.84074423 7.2734375 24.19140625 C7.2721159 25.67968919 7.26955349 27.16797166 7.265625 28.65625 C7.26967346 29.36148804 7.27372192 30.06672607 7.27789307 30.79333496 C7.22992486 35.77007514 7.22992486 35.77007514 5 38 C2.36276517 37.82985582 1.26255959 37.26331785 -0.60620117 35.38916016 C-2.512428 32.12162894 -2.37216312 29.66770933 -2.36328125 25.8984375 C-2.36377975 25.22076324 -2.36427826 24.54308899 -2.36479187 23.84487915 C-2.36245826 22.417715 -2.35277173 20.99054619 -2.33618164 19.56347656 C-2.31250302 17.375279 -2.31563592 15.18829387 -2.32226562 13 C-2.27921056 2.27921056 -2.27921056 2.27921056 0 0 Z " fill="#0A0A1E" transform="translate(131,302)"/>
<path d="M0 0 C10.26675661 0.45630029 21.84035516 7.84035516 29 15 C29.04092937 17.33297433 29.04241723 19.66705225 29 22 C25.42621777 23.04493766 23.26073126 23.56029392 19.79931641 22.02197266 C17.39794793 20.53815427 15.1035771 18.96139556 12.8125 17.3125 C12.01908203 16.76916016 11.22566406 16.22582031 10.40820312 15.66601562 C2.56189396 10.21773882 2.56189396 10.21773882 0 7 C-0.25 3.25 -0.25 3.25 0 0 Z " fill="#101026" transform="translate(49,227)"/>
<path d="M0 0 C5.93541074 0.46491468 10.0175773 2.26664723 15.125 5.25 C15.81464844 5.63285156 16.50429687 6.01570312 17.21484375 6.41015625 C21.39729763 8.80127233 24.85550701 11.27498523 28 15 C28.375 18.25 28.375 18.25 28 21 C27 22 27 22 24.40234375 22.3203125 C19.97523481 21.90352383 17.25889961 20.23108062 13.5625 17.875 C12.90378906 17.46266113 12.24507812 17.05032227 11.56640625 16.62548828 C9.69637438 15.43770266 7.84535774 14.22567555 6 13 C4.72962891 12.1646875 4.72962891 12.1646875 3.43359375 11.3125 C1.5 9.875 1.5 9.875 -1 7 C-0.9375 3.125 -0.9375 3.125 0 0 Z " fill="#111126" transform="translate(50,146)"/>
<path d="M0 0 C-0.30188613 3.20548179 -0.59412794 4.62656606 -3.00390625 6.84375 C-3.84824219 7.3903125 -4.69257813 7.936875 -5.5625 8.5 C-6.92181641 9.38365234 -6.92181641 9.38365234 -8.30859375 10.28515625 C-9.19675781 10.85105469 -10.08492188 11.41695312 -11 12 C-11.71285156 12.51433594 -12.42570312 13.02867188 -13.16015625 13.55859375 C-17.95880743 16.92623563 -21.14154484 17.70705493 -27 17 C-29 15 -29 15 -29.4375 12.625 C-28.81167201 8.87003207 -27.06410845 8.19914042 -24 6 C-21.59105606 4.46512209 -19.12818005 3.06223844 -16.625 1.6875 C-15.99078125 1.31560547 -15.3565625 0.94371094 -14.703125 0.56054688 C-9.60196595 -2.23468007 -5.43807133 -2.71903567 0 0 Z " fill="#100F25" transform="translate(281,104)"/>
<path d="M0 0 C1.15111514 3.45334542 1.23995786 6.29893888 1.3125 9.9375 C1.34988281 11.16339844 1.38726562 12.38929688 1.42578125 13.65234375 C1 17 1 17 -0.7734375 19.29296875 C-2.77962653 20.83104701 -4.73322211 22.14409631 -6.9375 23.375 C-10.88254508 25.73761095 -13.21505298 28.37112964 -16 32 C-16.33 32 -16.66 32 -17 32 C-17.78488769 19.96505546 -12.28396727 11.0785679 -5 2 C-2 0 -2 0 0 0 Z " fill="#BAC9D5" transform="translate(222,204)"/>
<path d="M0 0 C0.33 0 0.66 0 1 0 C1 2.97 1 5.94 1 9 C2.98 9 4.96 9 7 9 C7.33 8.34 7.66 7.68 8 7 C8.01458252 7.58378418 8.02916504 8.16756836 8.04418945 8.76904297 C8.11969085 11.47161959 8.21600338 14.17309464 8.3125 16.875 C8.33505859 17.7928125 8.35761719 18.710625 8.38085938 19.65625 C8.63325303 26.1725954 9.83659441 31.8515495 12 38 C9.25 37.875 9.25 37.875 6 37 C-0.57697504 29.5095562 -0.2780531 20.40687926 -0.125 11 C-0.11597656 9.93910156 -0.10695312 8.87820313 -0.09765625 7.78515625 C-0.07427524 5.18986362 -0.04150556 2.59505535 0 0 Z " fill="#BBD0DD" transform="translate(202,262)"/>
<path d="M0 0 C6.0146422 0.12662405 11.87221132 4.37221132 16 8.5 C15.75 11.0625 15.75 11.0625 15 13.5 C11.81774461 15.09112769 9.54194252 14.83732786 6 14.5 C1.91101638 12.70939933 -1.83393508 10.66606492 -5 7.5 C-5.25 5 -5.25 5 -5 2.5 C-3 0.5 -3 0.5 0 0 Z " fill="#171629" transform="translate(274,122.5)"/>
<path d="M0 0 C2.875 0.3125 2.875 0.3125 6 1 C8.08855328 4.13282992 8.24938801 4.8505635 8.23046875 8.4140625 C8.22853516 9.25710937 8.22660156 10.10015625 8.22460938 10.96875 C8.21236328 11.8453125 8.20011719 12.721875 8.1875 13.625 C8.18685547 14.50929687 8.18621094 15.39359375 8.18554688 16.3046875 C8.14030526 22.85969474 8.14030526 22.85969474 7 24 C2.61134975 24.46196318 2.61134975 24.46196318 0.35644531 22.75805664 C-1.34734047 20.54982025 -1.36179029 19.38600046 -1.328125 16.62109375 C-1.32296875 15.78255859 -1.3178125 14.94402344 -1.3125 14.08007812 C-1.291875 13.20802734 -1.27125 12.33597656 -1.25 11.4375 C-1.24226563 10.12362305 -1.24226563 10.12362305 -1.234375 8.78320312 C-1.15463447 2.30926894 -1.15463447 2.30926894 0 0 Z " fill="#0C0C20" transform="translate(88,240)"/>
<path d="M0 0 C5.75 0.75 5.75 0.75 8 3 C8.24291992 4.93945312 8.24291992 4.93945312 8.23046875 7.28125 C8.22853516 8.12300781 8.22660156 8.96476562 8.22460938 9.83203125 C8.21236328 10.71246094 8.20011719 11.59289062 8.1875 12.5 C8.18685547 13.38042969 8.18621094 14.26085937 8.18554688 15.16796875 C8.14040057 21.71919885 8.14040057 21.71919885 7 24 C4.6875 24.25 4.6875 24.25 2 24 C-0.05370314 22.20361664 -0.90659241 20.73212812 -1.25317383 18.015625 C-1.33187726 15.62837308 -1.310353 13.2627156 -1.25 10.875 C-1.24484375 10.05128906 -1.2396875 9.22757812 -1.234375 8.37890625 C-1.15491071 2.30982143 -1.15491071 2.30982143 0 0 Z " fill="#0C0B21" transform="translate(130,266)"/>
<path d="M0 0 C0 1.65 0 3.3 0 5 C-2.68074883 6.49265542 -5.36852058 7.96906953 -8.0625 9.4375 C-8.81466797 9.85837891 -9.56683594 10.27925781 -10.34179688 10.71289062 C-14.98365635 13.22471935 -18.7243603 14.61466111 -24 15 C-24.25 12.1875 -24.25 12.1875 -24 9 C-20.86974877 6.0393683 -17.03893978 4.51695764 -13.125 2.8125 C-11.93132812 2.28269531 -10.73765625 1.75289063 -9.5078125 1.20703125 C-6.0664633 0.02286989 -3.60208451 -0.24784985 0 0 Z " fill="#F3F2E7" transform="translate(302,304)"/>
<path d="M0 0 C0.33 0 0.66 0 1 0 C0.99887207 1.29623291 0.99774414 2.59246582 0.99658203 3.92797852 C1.00026506 8.75719503 1.04316523 13.5854182 1.09765625 18.41430664 C1.115776 20.50050441 1.12339209 22.58682182 1.12011719 24.6730957 C1.11724856 27.68013347 1.15268299 30.68471042 1.1953125 33.69140625 C1.18621857 34.61772354 1.17712463 35.54404083 1.16775513 36.49842834 C1.2966563 42.2979528 2.31445717 45.36630442 6.48995972 49.46495056 C9.65725514 52.68470246 11.58169085 56.74507256 13 61 C9.8125 61 9.8125 61 6 60 C-0.60558189 53.13772452 -1.30946168 43.63615803 -1.23046875 34.609375 C-1.22978142 33.30882172 -1.22978142 33.30882172 -1.2290802 31.98199463 C-1.22607844 30.16343808 -1.21825507 28.34488363 -1.20581055 26.52636719 C-1.18746075 23.74404812 -1.18530186 20.96206103 -1.18554688 18.1796875 C-1.1806341 16.40624713 -1.17480684 14.632809 -1.16796875 12.859375 C-1.16685593 12.03016541 -1.1657431 11.20095581 -1.16459656 10.34661865 C-1.15821671 9.57191223 -1.15183685 8.79720581 -1.14526367 7.99902344 C-1.14145187 7.32143982 -1.13764008 6.6438562 -1.13371277 5.94573975 C-0.99089017 3.86743707 -0.56172181 2.00245539 0 0 Z " fill="#C8BC83" transform="translate(242,288)"/>
<path d="M0 0 C1.19496094 -0.00386719 1.19496094 -0.00386719 2.4140625 -0.0078125 C4.375 0.125 4.375 0.125 5.375 1.125 C5.6875 3.48046875 5.6875 3.48046875 5.375 6.125 C2.347991 9.35521099 -1.57191513 11.72549956 -5.93359375 12.57421875 C-8.0625 12.625 -8.0625 12.625 -11.625 12.125 C-12.285 11.465 -12.945 10.805 -13.625 10.125 C-13.5625 7.75 -13.5625 7.75 -12.625 5.125 C-8.6086099 1.31999885 -5.47476433 -0.01783311 0 0 Z " fill="#0F0F25" transform="translate(179.625,159.875)"/>
<path d="M0 0 C1.051875 -0.00386719 1.051875 -0.00386719 2.125 -0.0078125 C4 0.125 4 0.125 6 1.125 C5.93033711 4.12050441 5.69928914 6.31716448 3.69140625 8.63671875 C-0.4889721 12.00612301 -3.87830126 12.63205791 -9.1796875 12.3984375 C-11 12.125 -11 12.125 -12 11.125 C-12.4375 8.875 -12.4375 8.875 -12 6.125 C-8.09908128 2.39368644 -5.40168449 -0.01985913 0 0 Z " fill="#101125" transform="translate(199,34.875)"/>
<path d="M0 0 C5.75 0.75 5.75 0.75 8 3 C8.17201285 5.54229159 8.23257617 7.96149996 8.1875 10.5 C8.18685547 11.18964844 8.18621094 11.87929688 8.18554688 12.58984375 C8.14055525 17.71888951 8.14055525 17.71888951 7 20 C4.6875 20.3125 4.6875 20.3125 2 20 C-1.03794491 16.13613627 -1.36019332 13.14447688 -1.25 8.3125 C-1.23453125 7.17425781 -1.2190625 6.03601563 -1.203125 4.86328125 C-1 2 -1 2 0 0 Z " fill="#101025" transform="translate(169,291)"/>
<path d="M0 0 C0.33 2.31 0.66 4.62 1 7 C-4.24400276 10.88841021 -8.34652105 13.86138586 -15 14 C-16 13 -16 13 -16.5625 10.3125 C-15.8967583 6.3920211 -15.20035505 5.98984537 -12.125 3.6875 C-7.75468202 0.70346568 -5.35987254 -0.11651897 0 0 Z " fill="#0A0D21" transform="translate(342,166)"/>
<path d="M0 0 C2 2 2 2 2.1171875 4.05859375 C1.46884768 10.42696395 1.46884768 10.42696395 -0.6875 13.0625 C-3.64424701 14.26118122 -5.83851964 14.34363917 -9 14 C-11 12 -11 12 -11.3125 9.1875 C-10.96477212 5.64067566 -10.10903783 3.83908938 -8 1 C-5.23749964 -0.38125018 -3.05268901 -0.19079306 0 0 Z " fill="#050922" transform="translate(255,192)"/>
<path d="M0 0 C-0.48210937 0.53109375 -0.96421875 1.0621875 -1.4609375 1.609375 C-2.09257812 2.31578125 -2.72421875 3.0221875 -3.375 3.75 C-4.00148437 4.44609375 -4.62796875 5.1421875 -5.2734375 5.859375 C-8.5925041 9.97441685 -9.24056053 12.70766833 -9 18 C-6.69 18.66 -4.38 19.32 -2 20 C-4.66236872 22.66236872 -7.32882365 23.05939079 -10.90625 24.0234375 C-13.50117546 25.23375721 -14.00599183 26.37452191 -15 29 C-15.61757362 10.47279139 -15.61757362 10.47279139 -9.625 3.3125 C-6.79119211 0.29767795 -4.07151995 -2.03575997 0 0 Z " fill="#497BA9" transform="translate(254,186)"/>
<path d="M0 0 C6.09772423 -0.49777341 9.15065894 0.50847444 14 4 C15.125 6.0625 15.125 6.0625 15 8 C14 9.75 14 9.75 12 11 C7.39001603 11.7092283 4.77976711 11.15411364 1.0625 8.5 C0.051875 7.675 -0.95875 6.85 -2 6 C-1.34 4.02 -0.68 2.04 0 0 Z " fill="#141429" transform="translate(231,149)"/>
<path d="M0 0 C3.5 0.3125 3.5 0.3125 7 1 C8.49106457 3.98212913 8.11941467 6.71609658 8 10 C7.67 10.33 7.34 10.66 7 11 C4.66055264 10.71269945 2.3260857 10.38063221 0 10 C-0.19412181 8.52168779 -0.38012131 7.04230684 -0.5625 5.5625 C-0.66691406 4.73878906 -0.77132812 3.91507813 -0.87890625 3.06640625 C-0.91886719 2.38449219 -0.95882812 1.70257813 -1 1 C-0.67 0.67 -0.34 0.34 0 0 Z " fill="#101022" transform="translate(130,217)"/>
<path d="M0 0 C3.5625 0.1875 3.5625 0.1875 5.5625 2.1875 C5.875 4.6875 5.875 4.6875 5.5625 7.1875 C2.11220958 9.48769361 0.61695642 9.61882515 -3.4375 9.1875 C-5.4375 6.1875 -5.4375 6.1875 -5.125 3.5625 C-4.0642205 -0.102011 -4.03994519 0.22036065 0 0 Z " fill="#272637" transform="translate(257.4375,89.8125)"/>
<path d="M0 0 C3.5625 0.1875 3.5625 0.1875 5.5625 2.1875 C5.2355244 4.80330479 4.74210932 6.82828137 3.5625 9.1875 C0.1875 9.375 0.1875 9.375 -3.4375 9.1875 C-5.4375 6.1875 -5.4375 6.1875 -5.125 3.5625 C-4.0642205 -0.102011 -4.03994519 0.22036065 0 0 Z " fill="#222234" transform="translate(172.4375,68.8125)"/>
<path d="M0 0 C3 0.25 3 0.25 5 2.25 C5.3125 4.75 5.3125 4.75 5 7.25 C1.54754176 9.55163882 0.05261287 9.59490322 -4 9.25 C-4.66 8.59 -5.32 7.93 -6 7.25 C-5.54913314 2.74133137 -4.87117378 0.40593115 0 0 Z " fill="#19192B" transform="translate(219,136.75)"/>
<path d="M0 0 C6.08695652 0.54347826 6.08695652 0.54347826 9 2 C8.125 6.875 8.125 6.875 7 8 C5.1875 8.1328125 5.1875 8.1328125 3 8.125 C2.278125 8.12757812 1.55625 8.13015625 0.8125 8.1328125 C-1 8 -1 8 -2 7 C-2.1875 4.5625 -2.1875 4.5625 -2 2 C-1.34 1.34 -0.68 0.68 0 0 Z " fill="#181726" transform="translate(234,102)"/>
<path d="M0 0 C6.75 -0.125 6.75 -0.125 9 1 C8.125 6.875 8.125 6.875 7 8 C4.66702567 8.04092937 2.33294775 8.04241723 0 8 C-1.125 6.25 -1.125 6.25 -2 4 C-1.125 1.75 -1.125 1.75 0 0 Z " fill="#232231" transform="translate(86,94)"/>
<path d="M0 0 C6.75 -0.125 6.75 -0.125 9 1 C8.125 6.875 8.125 6.875 7 8 C4.66702567 8.04092937 2.33294775 8.04241723 0 8 C-1.125 6.25 -1.125 6.25 -2 4 C-1.125 1.75 -1.125 1.75 0 0 Z " fill="#252433" transform="translate(189,80)"/>
<path d="M0 0 C2.4375 0.1875 2.4375 0.1875 3.4375 1.1875 C3.625 4.625 3.625 4.625 3.4375 8.1875 C1.4375 10.1875 1.4375 10.1875 -1.125 10.375 C-3.5625 10.1875 -3.5625 10.1875 -4.5625 9.1875 C-4.75 5.75 -4.75 5.75 -4.5625 2.1875 C-2.5625 0.1875 -2.5625 0.1875 0 0 Z " fill="#0E0F22" transform="translate(337.5625,143.8125)"/>
<path d="M0 0 C1.98 0 3.96 0 6 0 C6.08131463 1.43655854 6.13933559 2.8744483 6.1875 4.3125 C6.22230469 5.11300781 6.25710938 5.91351563 6.29296875 6.73828125 C5.93801608 9.47851584 5.10633718 10.29171079 3 12 C3 10.68 3 9.36 3 8 C1.35 8.33 -0.3 8.66 -2 9 C-1.34 6.03 -0.68 3.06 0 0 Z " fill="#C2DAE7" transform="translate(274,204)"/>
<path d="M0 0 C1.0625 1.8125 1.0625 1.8125 0.875 3.875 C0.0625 5.8125 0.0625 5.8125 -1.9375 7.8125 C-2.2675 6.8225 -2.5975 5.8325 -2.9375 4.8125 C-5.94597418 3.58729736 -5.94597418 3.58729736 -8.9375 2.8125 C-8.6075 1.8225 -8.2775 0.8325 -7.9375 -0.1875 C-2.48181438 -1.52111204 -2.48181438 -1.52111204 0 0 Z " fill="#305A89" transform="translate(302.9375,167.1875)"/>
<path d="M0 0 C3.465 1.98 3.465 1.98 7 4 C7 5.98 7 7.96 7 10 C2.37837838 8.54054054 2.37837838 8.54054054 0.6875 6.125 C0 4 0 4 0 0 Z " fill="#C0CFD8" transform="translate(232,206)"/>
<path d="M0 0 C2.3125 -0.25 2.3125 -0.25 5 0 C6.97610386 2.04424538 8 3.1176825 8 6 C5.69 5.67 3.38 5.34 1 5 C0.67 3.35 0.34 1.7 0 0 Z " fill="#E5CC64" transform="translate(247,343)"/>
<path d="M0 0 C0 3 0 3 -1.4609375 4.82421875 C-2.09257812 5.43910156 -2.72421875 6.05398438 -3.375 6.6875 C-4.00148437 7.31011719 -4.62796875 7.93273437 -5.2734375 8.57421875 C-7 10 -7 10 -9 10 C-7.61811547 6.78956118 -6.07578097 4.95063635 -3.375 2.75 C-2.74335938 2.22921875 -2.11171875 1.7084375 -1.4609375 1.171875 C-0.73777344 0.59179688 -0.73777344 0.59179688 0 0 Z " fill="#D7D7D6" transform="translate(257,267)"/>
<path d="M0 0 C0.99 0.33 1.98 0.66 3 1 C0.03 3.97 -2.94 6.94 -6 10 C-6.33 9.34 -6.66 8.68 -7 8 C-4.69 5.36 -2.38 2.72 0 0 Z " fill="#6791B4" transform="translate(248,186)"/>
<path d="M0 0 C2.125 0.375 2.125 0.375 4 1 C3.525625 1.350625 3.05125 1.70125 2.5625 2.0625 C0.33665301 4.82255027 0.44050255 7.53890856 0 11 C-0.66 11.66 -1.32 12.32 -2 13 C-2.05391993 11.20866022 -2.09275571 9.41686101 -2.125 7.625 C-2.14820313 6.62726563 -2.17140625 5.62953125 -2.1953125 4.6015625 C-2 2 -2 2 0 0 Z " fill="#261C0E" transform="translate(280,300)"/>
</svg>
